<?xml version="1.0" standalone="no"?>
<!DOCTYPE svg PUBLIC "-//W3C//DTD SVG 20010904//EN"
 "http://www.w3.org/TR/2001/REC-SVG-20010904/DTD/svg10.dtd">
<svg version="1.0" xmlns="http://www.w3.org/2000/svg"
 width="400.000000pt" height="400.000000pt" viewBox="0 0 400.000000 400.000000"
 preserveAspectRatio="xMidYMid meet">
<metadata>
Created by potrace 1.11, written by Peter Selinger 2001-2013
</metadata>
<g transform="translate(0.000000,400.000000) scale(0.100000,-0.100000)"
fill="#000000" stroke="none">
<path d="M1080 3482 c-21 -7 -50 -33 -50 -46 0 -12 30 -46 192 -219 136 -146
141 -153 133 -184 -11 -45 -75 -136 -143 -203 -61 -60 -166 -131 -201 -137
-18 -2 -45 20 -205 171 -170 160 -166 156 -192 156 -36 0 -47 -33 -41 -115 16
-195 136 -411 273 -491 55 -32 136 -60 199 -69 28 -3 64 -8 80 -10 17 -2 59
-6 95 -10 81 -7 154 -28 201 -57 106 -66 848 -805 1042 -1038 38 -45 51 -79
112 -305 37 -138 92 -248 155 -313 114 -115 321 -192 435 -161 39 11 85 45 85
64 0 7 -33 48 -74 91 -41 44 -106 113 -145 154 -50 54 -71 83 -71 101 0 38 73
142 128 182 54 39 108 60 127 49 16 -9 97 -82 211 -192 50 -47 98 -89 106 -93
26 -9 72 50 82 106 15 82 -67 294 -150 386 -87 97 -156 131 -384 191 -149 39
-223 69 -270 110 -215 185 -845 819 -1005 1011 -42 49 -57 101 -80 277 -24
189 -46 265 -96 343 -51 80 -152 154 -278 205 -81 33 -232 58 -271 46z"/>
<path d="M3260 3465 c-6 -8 -20 -17 -29 -20 -25 -7 -233 -133 -250 -150 -12
-12 -12 -19 -3 -40 7 -14 12 -36 12 -48 0 -15 -119 -140 -400 -422 -220 -220
-400 -405 -400 -411 0 -15 105 -124 121 -124 7 0 196 182 419 405 l406 405 44
-15 c35 -12 46 -13 55 -3 20 21 185 306 185 318 0 6 -23 36 -51 66 -53 56 -85
67 -109 39z"/>
<path d="M1389 1897 c-236 -181 -301 -239 -676 -612 -310 -308 -299 -290 -243
-399 79 -151 250 -314 397 -377 38 -16 52 -18 74 -9 34 15 543 528 684 690
145 168 140 161 227 276 124 163 135 124 -95 350 -109 107 -203 194 -210 193
-6 0 -78 -50 -158 -112z m-175 -380 c9 -14 -38 -66 -289 -317 -165 -165 -305
-300 -310 -300 -6 0 -18 12 -27 28 -13 21 -14 32 -5 47 6 11 138 148 294 303
271 271 285 283 305 270 12 -8 27 -22 32 -31z m269 -265 c9 -8 17 -19 17 -24
0 -14 -589 -600 -598 -596 -49 24 -62 33 -62 42 0 6 135 146 299 310 208 208
303 296 313 291 7 -5 21 -15 31 -23z"/>
</g>
</svg>
